<?xml version="1.0" encoding="utf-8"?>
<!-- Generator: Adobe Illustrator 19.0.0, SVG Export Plug-In . SVG Version: 6.00 Build 0)  -->
<svg version="1.1" id="Layer_1" xmlns="http://www.w3.org/2000/svg" xmlns:xlink="http://www.w3.org/1999/xlink" x="0px" y="0px"
	 viewBox="-1 3 24 24" style="enable-background:new -1 3 24 24;" xml:space="preserve">
<style type="text/css">
	.st0{fill:#E2E2E2;}
	.st1{fill:#C9C9C9;}
	.st2{fill:#CD0000;}
</style>
<g>
	<rect id="rect-1" x="-1" y="3" class="st0" width="24" height="24"/>
</g>
<g>
	<g id="rect-1_1_">
		<path class="st1" d="M22,4v22H0V4H22 M23,3H-1v24h24V3L23,3z"/>
	</g>
</g>
<path class="st2" d="M17.8,11.9l-7.7,7.9C10,20,9.7,20,9.5,19.8l-0.2-0.2l0,0l-0.2-0.2l-0.7-0.7c0,0,0,0,0,0l-3.3-3.4
	c-0.2-0.2-0.2-0.5,0-0.7l1-1.1c0.2-0.2,0.5-0.2,0.7,0l3,3.1l6.3-6.5c0.2-0.2,0.5-0.2,0.7,0l1,1.1C18,11.4,18,11.7,17.8,11.9z"/>
</svg>
