<?xml version="1.0" encoding="utf-8"?>
<!-- Generator: Adobe Illustrator 19.0.0, SVG Export Plug-In . SVG Version: 6.00 Build 0)  -->
<svg version="1.1" id="Layer_1" xmlns="http://www.w3.org/2000/svg" xmlns:xlink="http://www.w3.org/1999/xlink" x="0px" y="0px"
	 viewBox="0 0 20 20" style="enable-background:new 0 0 20 20;" xml:space="preserve">
<style type="text/css">
	.st0{fill:#6D6968;}
</style>
<g id="XMLID_1_">
	<path id="XMLID_4_" class="st0" d="M19.4,20c-0.2,0-0.3-0.1-0.4-0.2L0.2,1c-0.2-0.2-0.2-0.6,0-0.9s0.6-0.2,0.9,0L19.8,19
		c0.2,0.2,0.2,0.6,0,0.9C19.7,19.9,19.6,20,19.4,20z"/>
	<path id="XMLID_6_" class="st0" d="M0.6,20c-0.2,0-0.3-0.1-0.4-0.2c-0.2-0.2-0.2-0.6,0-0.9L19,0.2c0.2-0.2,0.6-0.2,0.9,0
		c0.2,0.2,0.2,0.6,0,0.9L1,19.8C0.9,19.9,0.8,20,0.6,20z"/>
</g>
</svg>
