<?xml version="1.0" encoding="utf-8"?>
<!-- Generator: Adobe Illustrator 19.0.0, SVG Export Plug-In . SVG Version: 6.00 Build 0)  -->
<svg version="1.1" id="Layer_1" xmlns="http://www.w3.org/2000/svg" xmlns:xlink="http://www.w3.org/1999/xlink" x="0px" y="0px"
	 viewBox="-3 5 20 20" style="enable-background:new -3 5 20 20;" xml:space="preserve">
<style type="text/css">
	.st0{fill:#838B83;}
</style>
<path class="st0" d="M16.7,8.3l-0.9,0.9l-3.1-3.1l0.9-0.9c0.3-0.3,0.9-0.4,1.2,0l1.9,1.9C17.1,7.5,17.1,8,16.7,8.3z M8.5,16.5
	l-3.1-3.1l6.8-6.8l3.1,3.1L8.5,16.5z M8.1,16.9l-4.3,1.2L5,13.8L8.1,16.9z M0.9,7.6c-1.1,0-1.9,0.9-1.9,1.9v11.6
	c0,1.1,0.9,1.9,1.9,1.9h11.6c1.1,0,1.9-0.9,1.9-1.9v-7.8l1.9-1.9v10.3c0,1.8-1.4,3.2-3.2,3.2H0.2C-1.6,25-3,23.6-3,21.8V8.9
	c0-1.8,1.4-3.2,3.2-3.2h10.3L8.6,7.6H0.9z"/>
</svg>
