<?xml version="1.0" encoding="utf-8"?>
<!-- Generator: Adobe Illustrator 19.0.0, SVG Export Plug-In . SVG Version: 6.00 Build 0)  -->
<svg version="1.1" id="Layer_1" xmlns="http://www.w3.org/2000/svg" xmlns:xlink="http://www.w3.org/1999/xlink" x="0px" y="0px"
	 viewBox="-5 7 16 16" style="enable-background:new -5 7 16 16;" xml:space="preserve">
<style type="text/css">
	.st0{fill:#676E7A;}
</style>
<path class="st0" d="M3,18.1l-6.8-7c-0.2-0.2-0.6-0.2-0.8,0l-0.2,0.2c-0.2,0.2-0.2,0.6,0,0.9l7.2,7.4c0,0,0,0,0,0l0.2,0.2
	C2.7,20,2.8,20,3,20c0.1,0,0.3-0.1,0.4-0.2l0.2-0.2c0,0,0,0,0,0l7.2-7.4c0.2-0.2,0.2-0.6,0-0.9l-0.2-0.2c-0.2-0.2-0.6-0.2-0.8,0
	L3,18.1z"/>
</svg>
